<svg width="136" height="33" viewBox="0 0 136 33" fill="none" xmlns="http://www.w3.org/2000/svg">
<g clip-path="url(#clip0_1_37)">
<path fill-rule="evenodd" clip-rule="evenodd" d="M0.463072 1.91709C0.116124 2.26618 0 2.96292 0 3.54426V29.0175C0 29.5995 0.231536 30.1809 0.463072 30.6461L0.579196 30.7622L14.933 16.4561V16.107L0.463784 1.91638L0.463072 1.91709Z" fill="url(#paint0_linear_1_37)"/>
<path fill-rule="evenodd" clip-rule="evenodd" d="M19.6789 21.1083L14.9327 16.3393V15.9903L19.6789 11.222L19.7943 11.3389L25.4666 14.5953C27.0873 15.5258 27.0873 17.0382 25.4666 17.9687L19.6789 21.109V21.1083Z" fill="url(#paint1_linear_1_37)"/>
<path fill-rule="evenodd" clip-rule="evenodd" d="M19.7945 21.1082L14.8176 16.2231L0.463745 30.6446C1.15835 31.2267 2.19991 31.2267 2.89452 30.7615L19.7945 21.1082Z" fill="url(#paint2_linear_1_37)"/>
<path fill-rule="evenodd" clip-rule="evenodd" d="M19.7943 11.3382L2.77961 1.80037C2.08429 1.33516 1.04131 1.33516 0.347412 1.91721L14.8166 16.224L19.7943 11.3389V11.3382Z" fill="url(#paint3_linear_1_37)"/>
<path fill-rule="evenodd" clip-rule="evenodd" d="M43.4089 4.94065C43.4089 5.75494 43.0612 6.68536 42.5982 7.2667C42.2638 7.60056 41.8667 7.86498 41.4297 8.04471C40.9927 8.22445 40.5245 8.31595 40.052 8.31395C39.1258 8.31395 38.0836 7.96487 37.5051 7.2667C36.6951 6.56853 36.3474 5.63882 36.3474 4.70769C36.3474 3.66115 36.6951 2.73073 37.3897 2.14939C38.0836 1.45122 39.0097 0.986014 39.9359 1.10214C40.3989 1.10214 40.862 1.21826 41.3251 1.45122C41.672 1.68418 42.1351 1.80031 42.4828 2.26552L41.9036 2.6146C41.3814 2.09327 40.6737 1.80042 39.9359 1.80031C39.1258 1.80031 38.4312 2.14939 37.852 2.73073C37.3325 3.25752 37.0415 3.96781 37.042 4.70769C37.042 5.40586 37.3897 6.22015 37.852 6.68536C38.3744 7.20687 39.0823 7.49974 39.8205 7.49966C40.6305 7.49966 41.2097 7.15057 41.7882 6.68536C42.1351 6.22015 42.3666 5.63811 42.4828 5.1729H39.9359V4.35932H43.2928C43.4089 4.59156 43.4089 4.82452 43.4089 4.94065ZM48.7328 2.03327H45.6081V4.35932H48.3866V5.1729H45.6081V7.38353H48.7328V8.19711H44.6813V1.21826H48.7328V2.03327ZM52.4374 8.19711H51.5112V2.03327H49.5435V1.21826H54.2897V2.03327H52.322V8.19783L52.4374 8.19711ZM57.8781 8.19711V1.21826H58.8043V8.08099C58.6881 8.19711 57.8781 8.19711 57.8781 8.19711ZM61.8135 8.19711V2.03327H59.8465V1.21826H64.5927V2.03327H62.625C62.7404 2.03327 62.7404 8.19783 62.7404 8.19783H61.8142L61.8135 8.19711ZM73.7366 7.2667C72.3473 8.66304 70.1481 8.66304 68.5274 7.2667C67.8553 6.58508 67.4808 5.66489 67.4858 4.70769C67.4858 3.77727 67.8328 2.73073 68.5274 2.14939C70.0327 0.636929 72.2319 0.636929 73.7366 2.03256C74.4086 2.71417 74.7832 3.63436 74.7781 4.59156C74.7781 5.63882 74.4312 6.56924 73.7366 7.2667ZM69.222 6.68536C70.2635 7.73262 72.0004 7.73262 72.9265 6.68536C73.4462 6.15839 73.7373 5.44781 73.7366 4.70769C73.7366 4.00952 73.3889 3.31206 72.9265 2.73073C71.8843 1.68347 70.1481 1.68347 69.222 2.73073C68.7024 3.25752 68.4114 3.96781 68.4119 4.70769C68.4119 5.40586 68.7589 6.10403 69.222 6.68536ZM76.0519 8.19711V1.21826H77.2089L80.5658 6.56853V1.21826H81.492V8.08099H80.5658L76.9774 2.38164V7.96415L76.0512 8.19711H76.0519Z" fill="white" stroke="white" stroke-width="0.560673"/>
<path fill-rule="evenodd" clip-rule="evenodd" d="M67.3697 18.2002C64.5913 18.2002 62.5081 20.4101 62.6243 23.2013C62.7397 25.9933 64.8235 28.0871 67.6012 27.9703C70.2635 27.9703 72.3474 25.7604 72.3474 23.0852C72.3474 20.4101 70.2635 18.2002 67.3697 18.2002ZM67.3697 26.1094C65.7496 26.2263 64.3604 24.9468 64.2443 23.3182C64.1289 21.6896 65.402 20.294 67.0227 20.1778C68.6435 20.061 70.0327 21.3405 70.1481 22.9691V23.2021C70.2635 24.7138 68.9904 26.1094 67.3697 26.1094ZM56.605 18.2002C53.8266 18.2002 51.7428 20.4101 51.8589 23.2013C51.8589 25.9933 54.0581 28.0871 56.8366 27.9703C59.4989 27.9703 61.582 25.7604 61.582 23.0852C61.582 20.4101 59.3828 18.2002 56.605 18.2002ZM56.605 26.1094C54.9843 26.2263 53.5951 24.9468 53.4797 23.3182C53.3635 21.6896 54.6366 20.294 56.2581 20.1778C57.8781 20.061 59.2674 21.3405 59.3828 22.9691V23.2021C59.3828 24.7138 58.2251 26.1094 56.6043 26.1094H56.605ZM43.7559 19.7119V21.8064H48.8497C48.7335 22.853 48.3866 23.7834 47.6913 24.4816C46.6497 25.5281 45.2605 26.1094 43.872 25.9933C40.862 25.8772 38.5467 23.2021 38.6628 20.1778C38.7782 17.3859 41.0936 14.9437 43.872 14.9437C45.2612 14.9437 46.6504 15.4089 47.5758 16.4555L49.0805 15.0598C47.6913 13.6635 45.7236 12.966 43.872 12.966C39.7043 12.7338 36.232 16.1064 35.9998 20.294C35.7689 24.4816 39.1258 27.9703 43.2928 28.2032H43.872C45.8397 28.3194 47.8074 27.5051 49.1966 26.1094C50.5858 24.3647 51.2797 22.1555 50.9328 19.9449H43.7559V19.7126V19.7119ZM96.3088 21.3405C95.7304 19.4797 93.9935 18.3163 92.0258 18.2002C89.4796 18.2002 87.3951 20.1778 87.3951 22.8523V23.0852C87.2797 25.7604 89.3635 27.9703 92.0258 28.0864H92.2573C93.8781 28.0864 95.4988 27.2728 96.425 25.9933L94.6881 24.8299C94.225 25.6442 93.2989 26.1094 92.2573 26.1094C91.7511 26.1108 91.2548 25.9697 90.825 25.7024C90.3951 25.4351 90.0492 25.0523 89.8265 24.5977L96.4243 21.8057L96.3088 21.3405ZM89.595 22.9691C89.4796 21.4573 90.6366 20.1778 92.1419 20.1778H92.2573C93.0673 20.061 93.762 20.5269 94.1096 21.2251L89.595 22.9691ZM84.1543 27.738H86.2381V13.3151H84.1543V27.738ZM80.6819 19.3635C79.8712 18.6654 78.9458 18.2002 77.9035 18.2002C75.1251 18.3163 73.1581 20.6431 73.2735 23.4343C73.3889 25.9933 75.3573 27.9703 77.9042 28.0864C78.9458 28.0864 79.8712 27.738 80.5658 26.9237H80.6819V27.6219C80.9135 29.0175 79.9873 30.297 78.5981 30.4132H78.135C76.9774 30.4132 76.0519 29.715 75.5889 28.6684L73.7366 29.4827C74.4312 31.2275 76.1673 32.3908 78.135 32.3908C80.6819 32.3908 82.7658 30.8784 82.7658 27.2728V18.5493H80.6819V19.3635ZM78.135 26.1102C76.515 25.9933 75.3566 24.5977 75.3566 22.9691C75.4727 21.4573 76.6304 20.1778 78.135 20.1778C79.6404 20.294 80.9135 21.4573 80.7974 23.0852V23.2021C80.9135 24.8299 79.7558 26.1094 78.135 26.1094V26.1102ZM106.38 13.3151H101.17V27.738H103.254V22.2709H106.263C108.695 22.5039 110.778 20.5269 111.01 18.084C111.241 15.6412 109.273 13.5481 106.842 13.3151H106.379H106.38ZM106.38 20.294H103.37V15.2928H106.38C107.769 15.2928 108.926 16.4555 108.926 17.735C108.926 19.1313 107.884 20.294 106.38 20.294ZM119.923 18.2002C118.303 18.084 116.797 19.0145 116.103 20.4101L118.071 21.2244C118.418 20.5262 119.228 20.061 120.039 20.1771C121.196 20.061 122.238 20.8753 122.354 22.0387V22.1548C121.66 21.8057 120.849 21.5735 120.039 21.6896C118.071 21.6896 115.871 22.853 115.871 24.9468C115.987 26.8076 117.492 28.2032 119.46 28.0871H119.576C120.733 28.2032 121.66 27.6219 122.354 26.6908H122.47V27.8542H124.553V22.2709C124.322 19.7126 122.353 18.2002 119.923 18.2002ZM119.576 26.1094C118.766 26.2263 118.071 25.7604 117.84 24.9468C117.84 23.7834 118.997 23.4343 120.155 23.4343C120.849 23.4343 121.544 23.6673 122.122 23.8995C122.006 25.179 120.849 26.1094 119.576 26.1094ZM131.846 18.5493L129.299 24.7138L126.753 18.5493H124.437L128.257 27.2728L126.058 32.1579H128.373L134.393 18.5493H131.846ZM112.399 27.738H114.483V13.3151H112.399V27.738Z" fill="white"/>
</g>
<defs>
<linearGradient id="paint0_linear_1_37" x1="13.4657" y1="29.1679" x2="-9.48159" y2="23.0468" gradientUnits="userSpaceOnUse">
<stop stop-color="#4998D3"/>
<stop offset="0.01" stop-color="#4A99D3"/>
<stop offset="0.26" stop-color="#42BAEB"/>
<stop offset="0.51" stop-color="#41C7F2"/>
<stop offset="0.76" stop-color="#56C9E9"/>
<stop offset="1" stop-color="#5BCAE8"/>
</linearGradient>
<linearGradient id="paint1_linear_1_37" x1="27.4532" y1="16.2065" x2="-0.558122" y2="16.2065" gradientUnits="userSpaceOnUse">
<stop stop-color="#FEE000"/>
<stop offset="0.41" stop-color="#FEBD11"/>
<stop offset="0.78" stop-color="#FAA51A"/>
<stop offset="1" stop-color="#F99B1C"/>
</linearGradient>
<linearGradient id="paint2_linear_1_37" x1="7.34356" y1="23.0984" x2="-11.0639" y2="-7.82944" gradientUnits="userSpaceOnUse">
<stop stop-color="#EF4149"/>
<stop offset="1" stop-color="#C31E63"/>
</linearGradient>
<linearGradient id="paint3_linear_1_37" x1="-12.8154" y1="29.4408" x2="-4.79164" y2="15.5692" gradientUnits="userSpaceOnUse">
<stop stop-color="#32A072"/>
<stop offset="0.07" stop-color="#2CA772"/>
<stop offset="0.48" stop-color="#4BBA71"/>
<stop offset="0.8" stop-color="#5EBD6B"/>
<stop offset="1" stop-color="#66BE69"/>
</linearGradient>
<clipPath id="clip0_1_37">
<rect width="135.36" height="32.0588" fill="white"/>
</clipPath>
</defs>
</svg>
