<svg width="173" height="61" viewBox="0 0 173 61" fill="none" xmlns="http://www.w3.org/2000/svg">
<path fill-rule="evenodd" clip-rule="evenodd" d="M12.3672 5H159.079C162.339 5 163.519 5.36522 164.711 6.04347C165.888 6.71077 166.85 7.74249 167.473 9.00433C168.105 10.2826 168.446 11.5478 168.446 15.0304V47.1433C168.446 50.6259 168.105 51.8911 167.473 53.1694C166.85 54.4312 165.888 55.4629 164.711 56.1302C163.519 56.8085 162.339 57.1737 159.091 57.1737H12.355C9.1069 57.1737 7.92689 56.8085 6.7347 56.1302C5.55783 55.4629 4.59558 54.4312 3.97321 53.1694C3.34062 51.8911 3 50.6259 3 47.1433V15.0304C3 11.5478 3.34062 10.2826 3.97321 9.00433C4.59558 7.74249 5.55783 6.71077 6.7347 6.04347C7.92689 5.36522 9.1069 5 12.355 5H12.3672Z" fill="black"/>
<path fill-rule="evenodd" clip-rule="evenodd" d="M22.8215 43.3242L22.9675 43.3633C22.9181 43.3536 22.8694 43.3405 22.8215 43.3242V43.3242ZM43.6239 28.4547C44.1713 28.7808 44.512 29.2112 44.6215 29.6547L44.6458 29.8243C44.5971 30.3199 44.2443 30.8156 43.6117 31.1938L24.3908 42.8938C24.0015 43.1416 23.6244 43.246 23.296 43.246C22.9553 43.246 22.6634 43.1286 22.4201 42.9068L22.3471 42.8286C22.0282 42.4162 21.8673 41.8894 21.897 41.3547V18.2939C21.897 17.5895 22.0916 17.0548 22.4201 16.7287C22.6634 16.5069 22.9553 16.3896 23.296 16.3896C23.6244 16.3896 24.0015 16.5069 24.3908 16.7417L43.6117 28.4547H43.6239ZM23.2838 16.233H23.4541H23.2838ZM134.96 42.7894H137.223V26.4852H134.96V42.7894ZM155.397 32.3547L152.794 39.4242H152.721L150.02 32.3547H147.575L151.626 42.2416L149.315 47.7329H151.687L157.928 32.3547H155.397ZM142.527 40.9373C141.784 40.9373 140.75 40.546 140.75 39.5547C140.75 38.2895 142.04 37.8068 143.147 37.8068C144.157 37.8068 144.619 38.0416 145.227 38.3547C145.145 39.0627 144.826 39.7146 144.329 40.1895C143.832 40.6645 143.192 40.9301 142.527 40.9373ZM142.806 32.0025C141.152 32.0025 139.461 32.7851 138.755 34.4938L140.763 35.4069C141.201 34.4938 142.003 34.2069 142.831 34.2069C144.011 34.2069 145.203 34.9503 145.227 36.2938V36.4634C144.497 36.0486 143.682 35.8335 142.855 35.8373C140.69 35.8373 138.476 37.1155 138.476 39.5025C138.476 41.6938 140.264 43.1025 142.247 43.1025C143.78 43.1025 144.619 42.359 145.154 41.4981H145.227V42.7633H147.417V36.5025C147.417 33.6199 145.398 32.0025 142.794 32.0025H142.806ZM128.768 34.3503H125.544V28.7417H128.768C130.471 28.7417 131.444 30.2547 131.444 31.546C131.444 32.8112 130.471 34.3373 128.768 34.3373V34.3503ZM128.719 26.4852H123.269V42.7894H125.544V36.6069H128.707C131.225 36.6069 133.695 34.6503 133.695 31.546C133.695 28.4417 131.225 26.4852 128.707 26.4852H128.719ZM99.0483 40.9373C97.4912 40.9373 96.1773 39.5286 96.1773 37.5982C96.1773 35.6416 97.4912 34.2069 99.0483 34.2069C100.605 34.2069 101.822 35.6416 101.822 37.5982C101.822 39.5286 100.605 40.9373 99.0483 40.9373ZM101.664 33.2677H101.579C101.233 32.8653 100.811 32.5466 100.341 32.3329C99.871 32.1192 99.3639 32.0155 98.8537 32.0286C97.5145 32.0829 96.2478 32.6952 95.3232 33.7353C94.3985 34.7754 93.8888 36.1613 93.9025 37.5982C93.8922 39.0302 94.4041 40.4099 95.3291 41.443C96.254 42.4761 97.5188 43.081 98.8537 43.1286C99.3664 43.1427 99.8757 43.0368 100.346 42.8183C100.817 42.5998 101.238 42.2739 101.579 41.8634H101.664V42.659C101.664 44.7851 100.605 45.9199 98.9023 45.9199C98.333 45.9082 97.7799 45.7145 97.3139 45.3636C96.8479 45.0127 96.4903 44.5206 96.2868 43.9503L94.3161 44.8242C94.6874 45.8001 95.3226 46.6347 96.1399 47.2204C96.9572 47.8062 97.9193 48.1164 98.9023 48.1111C101.567 48.1111 103.817 46.4155 103.817 42.3329V32.3677H101.664V33.2808V33.2677ZM105.386 42.7894H107.661V26.4852H105.386V42.7894ZM111.007 37.4025C110.982 36.9991 111.033 36.5944 111.156 36.2122C111.279 35.83 111.472 35.478 111.723 35.1768C111.975 34.8755 112.28 34.6311 112.62 34.4578C112.961 34.2846 113.331 34.186 113.707 34.1677C114.62 34.1677 115.386 34.6503 115.629 35.3416L111.007 37.4155V37.4025ZM118.062 35.5634C117.637 34.3243 116.323 32.0417 113.634 32.0417C110.97 32.0417 108.756 34.2721 108.756 37.5721C108.756 40.6894 110.946 43.1286 113.89 43.1286C116.262 43.1286 117.637 41.5634 118.208 40.6634L116.444 39.4112C116.179 39.8813 115.803 40.2691 115.355 40.5367C114.908 40.8042 114.402 40.9423 113.89 40.9373C112.734 40.9373 111.907 40.3764 111.384 39.2547L118.306 36.1895L118.062 35.5634V35.5634ZM62.9543 33.7373V36.0851H68.1975C68.1218 37.1877 67.7018 38.2308 67.0053 39.046C66.4782 39.6219 65.8441 40.0727 65.1442 40.3693C64.4443 40.6658 63.6941 40.8016 62.9422 40.7677C62.1798 40.766 61.4252 40.6023 60.7223 40.2859C60.0193 39.9696 59.3818 39.5069 58.8467 38.9247C58.3115 38.3424 57.8894 37.6522 57.6047 36.8939C57.32 36.1355 57.1784 35.3242 57.188 34.5069C57.1737 33.2932 57.4929 32.1018 58.1058 31.0813C58.7187 30.0608 59.5982 29.2563 60.6347 28.7682C61.6711 28.28 62.8187 28.1297 63.9342 28.3361C65.0498 28.5424 66.084 29.0963 66.908 29.9286L68.453 28.2721C67.7279 27.5032 66.867 26.8972 65.9207 26.4896C64.9745 26.0819 63.9618 25.8809 62.9422 25.8982C60.8014 25.8979 58.7465 26.8007 57.2214 28.4115C55.6963 30.0223 54.8235 32.2118 54.7915 34.5069C54.8235 36.8019 55.6963 38.9914 57.2214 40.6022C58.7465 42.213 60.8014 43.1158 62.9422 43.1155C65.3387 43.1155 67.1391 42.2807 68.5503 40.7025C69.8293 39.204 70.5105 37.2283 70.4481 35.1982C70.4481 34.6503 70.4116 34.1547 70.3264 33.7373H62.9422H62.9543ZM76.4211 40.9373C74.8518 40.9373 73.5015 39.5547 73.5015 37.5721C73.5015 35.5764 74.8518 34.2199 76.4211 34.2199C78.0026 34.2199 79.3408 35.5764 79.3408 37.5721C79.3408 39.5547 78.0026 40.9373 76.4211 40.9373V40.9373ZM76.4211 32.0286C75.7379 32.0163 75.0593 32.1512 74.4255 32.4251C73.7917 32.699 73.2156 33.1064 72.7312 33.6233C72.2469 34.1402 71.8642 34.756 71.6058 35.4342C71.3473 36.1125 71.2184 36.8394 71.2266 37.5721C71.2168 38.3058 71.3445 39.0342 71.6022 39.7139C71.8599 40.3937 72.2423 41.0111 72.7268 41.5293C73.2113 42.0476 73.788 42.4562 74.4226 42.7309C75.0572 43.0056 75.7369 43.1409 76.4211 43.1286C77.1054 43.1409 77.7851 43.0056 78.4197 42.7309C79.0543 42.4562 79.631 42.0476 80.1155 41.5293C80.6 41.0111 80.9824 40.3937 81.2401 39.7139C81.4978 39.0342 81.6255 38.3058 81.6157 37.5721C81.6239 36.8394 81.495 36.1125 81.2365 35.4342C80.9781 34.756 80.5954 34.1402 80.111 33.6233C79.6267 33.1064 79.0506 32.699 78.4168 32.4251C77.783 32.1512 77.1044 32.0163 76.4211 32.0286V32.0286ZM87.7591 40.9373C86.1776 40.9373 84.8394 39.5547 84.8394 37.5721C84.8394 35.5764 86.1776 34.2199 87.7591 34.2199C89.3162 34.2199 90.6787 35.5764 90.6787 37.5721C90.6787 39.5547 89.3162 40.9373 87.7591 40.9373ZM87.7591 32.0286C87.0758 32.0163 86.3972 32.1512 85.7634 32.4251C85.1296 32.699 84.5535 33.1064 84.0692 33.6233C83.5848 34.1402 83.2021 34.756 82.9437 35.4342C82.6852 36.1125 82.5563 36.8394 82.5645 37.5721C82.5547 38.3058 82.6824 39.0342 82.9401 39.7139C83.1978 40.3937 83.5802 41.0111 84.0647 41.5293C84.5492 42.0476 85.1259 42.4562 85.7605 42.7309C86.3951 43.0056 87.0748 43.1409 87.7591 43.1286C88.4433 43.1409 89.123 43.0056 89.7576 42.7309C90.3922 42.4562 90.9689 42.0476 91.4534 41.5293C91.9379 41.0111 92.3203 40.3937 92.578 39.7139C92.8357 39.0342 92.9635 38.3058 92.9536 37.5721C92.9618 36.8394 92.8329 36.1125 92.5744 35.4342C92.316 34.756 91.9333 34.1402 91.449 33.6233C90.9646 33.1064 90.3885 32.699 89.7547 32.4251C89.1209 32.1512 88.4423 32.0163 87.7591 32.0286V32.0286Z" fill="white"/>
<path fill-rule="evenodd" clip-rule="evenodd" d="M61.4948 17.707C61.4948 18.6853 61.2272 19.4679 60.6797 20.0548C60.0715 20.7461 59.2564 21.0983 58.271 21.0983C57.3222 21.0983 56.5071 20.7461 55.838 20.0418C55.5165 19.702 55.2632 19.2953 55.0937 18.8467C54.9243 18.3981 54.8422 17.917 54.8526 17.4331C54.8526 16.3896 55.1811 15.5027 55.8502 14.7983C56.5071 14.094 57.31 13.7418 58.271 13.7418C58.7333 13.7418 59.1834 13.8462 59.6092 14.0418C60.0471 14.2375 60.3878 14.4983 60.6432 14.8244L60.0593 15.4375C59.8399 15.1619 59.5648 14.9436 59.255 14.7989C58.9451 14.6543 58.6087 14.5872 58.271 14.6027C57.5776 14.6027 56.9815 14.8636 56.4706 15.3853C55.9718 15.907 55.7164 16.5853 55.7164 17.4201C55.7164 18.2548 55.9597 18.9331 56.4706 19.4548C56.9815 19.9766 57.5655 20.2374 58.271 20.2374C59.0009 20.2374 59.6092 19.9766 60.0958 19.4548C60.4121 19.1027 60.6067 18.6331 60.6554 18.0201H58.271V17.1722H61.4461C61.4826 17.3548 61.4948 17.5375 61.4948 17.694" fill="white"/>
<path fill-rule="evenodd" clip-rule="evenodd" d="M61.4946 17.7071H61.3851C61.3851 18.6723 61.1175 19.4027 60.6065 19.9767C59.9983 20.6419 59.2319 20.981 58.2708 20.981C57.3463 20.981 56.5677 20.6419 55.9229 19.9636C55.6075 19.6339 55.3592 19.2376 55.1938 18.7999C55.0284 18.3621 54.9494 17.8923 54.9619 17.4201C54.9619 16.4028 55.2782 15.568 55.9351 14.8767C56.2394 14.5457 56.6035 14.2848 57.0052 14.1099C57.4068 13.9349 57.8374 13.8497 58.2708 13.8593C58.7209 13.8593 59.1589 13.9506 59.5725 14.1462C59.9861 14.3419 60.3024 14.5897 60.5579 14.9028L60.643 14.8245L60.5579 14.7462L59.9861 15.3593L60.0591 15.4375L60.1442 15.3723C59.6941 14.7854 59.0494 14.4854 58.2708 14.4854C57.5409 14.4854 56.9205 14.7593 56.3974 15.3071C55.8743 15.8419 55.6066 16.5593 55.6066 17.4201C55.6066 18.281 55.8743 18.9854 56.3974 19.5332C56.9205 20.081 57.5531 20.3549 58.2708 20.3549C59.0251 20.3549 59.6698 20.081 60.1807 19.5332C60.5214 19.168 60.716 18.6593 60.7647 18.0332V17.9028H58.3925V17.2897H61.4581V17.1723L61.3486 17.1984C61.3851 17.368 61.3973 17.5375 61.3973 17.7071H61.6162C61.6162 17.5245 61.6041 17.3419 61.5676 17.1593L61.5554 17.0549H58.1492V18.1375H60.643V18.0201H60.5214C60.4849 18.6071 60.3024 19.0506 60.0104 19.3636C59.536 19.8723 58.9642 20.1201 58.2586 20.1201C57.5896 20.1201 57.0178 19.8593 56.5312 19.3636C56.0446 18.868 55.8013 18.2288 55.8013 17.4201C55.8013 16.6115 56.0446 15.9854 56.5312 15.4636C57.0178 14.968 57.5896 14.7202 58.2586 14.7202C58.9886 14.7202 59.5482 14.981 59.9618 15.5158L60.0469 15.6202L60.7038 14.9028L60.7768 14.8376L60.716 14.7462C60.4246 14.3857 60.0577 14.1041 59.6455 13.9245C59.2107 13.7265 58.7432 13.6245 58.2708 13.6245C57.2976 13.6245 56.446 13.9897 55.777 14.7202C55.4422 15.0683 55.1778 15.4864 54.9999 15.9486C54.822 16.4108 54.7346 16.9072 54.7429 17.4071C54.7429 18.4767 55.0835 19.3897 55.777 20.1201C56.1023 20.4727 56.4912 20.7505 56.92 20.9366C57.3487 21.1228 57.8084 21.2133 58.2708 21.2027C59.2805 21.2027 60.1199 20.8375 60.7525 20.1201L60.6795 20.0419L60.7525 20.1332C61.3243 19.5201 61.6041 18.6984 61.6041 17.6941H61.4946V17.7071ZM66.5431 14.7593H63.5505V17.0028H66.2512V17.8375H63.5505V20.081H66.5431V20.9419H62.7111V13.8984H66.5431V14.7593" fill="white"/>
<path fill-rule="evenodd" clip-rule="evenodd" d="M66.5432 14.7593V14.6419H63.4411V17.1201H66.1417V17.7201H63.4411V20.1984H66.4337V20.8245H62.8207V14.0158H66.4337V14.7593H66.5432V14.6419V14.7723H66.6527V13.781H62.6017V21.0592H66.6527V19.9636H63.6601V17.9549H66.3607V16.8853H63.6601V14.8767H66.6527V14.7593H66.531H66.5432ZM70.0954 20.9418H69.256V14.7593H67.4313V13.8984H71.9324V14.7593H70.1076V20.9418" fill="white"/>
<path fill-rule="evenodd" clip-rule="evenodd" d="M70.0955 20.9418V20.8245H69.3656V14.6419H67.5408V14.0158H71.823V14.6419H69.9982V20.9418H70.0955V20.8245V20.9549H70.2172V14.8767H72.0419V13.781H67.3097V14.8767H69.1466V21.0592H70.205V20.9418H70.0955V20.9418ZM75.2049 20.9418H76.0564V13.8984H75.2049V20.9418Z" fill="white"/>
<path fill-rule="evenodd" clip-rule="evenodd" d="M75.2048 20.9418H75.3143V14.0288H75.9347V20.8245H75.2048V20.9549H75.3143H75.1927V21.0592H76.1659V13.781H75.0953V21.0592H75.2048V20.9418ZM79.7911 20.9418H78.9395V14.7593H77.1148V13.8984H81.6159V14.7593H79.7911V20.9418Z" fill="white"/>
<path fill-rule="evenodd" clip-rule="evenodd" d="M79.7908 20.9419V20.8245H79.0609V14.6419H77.224V14.0158H81.5061V14.6419H79.6813V20.9419H79.7908V20.8245V20.9549H79.9003V14.8767H81.7251V13.7811H77.005V14.8767H78.8298V21.0593H79.9003V20.9419H79.7787H79.7908ZM85.9707 19.4419C86.4573 19.9636 87.0656 20.2245 87.759 20.2245C88.4646 20.2245 89.0607 19.9636 89.5473 19.4419C90.0339 18.9202 90.2772 18.2419 90.2772 17.4202C90.2772 16.5984 90.0339 15.9332 89.5473 15.3984C89.0607 14.8767 88.4646 14.6158 87.759 14.6158C87.0534 14.6158 86.4573 14.8767 85.9707 15.3984C85.4841 15.9202 85.2408 16.5984 85.2408 17.4202C85.2408 18.2419 85.4841 18.9202 85.9707 19.4419ZM90.1677 20.0289C89.523 20.7462 88.7201 21.0984 87.759 21.0984C86.798 21.0984 85.9951 20.7462 85.3503 20.0289C85.0333 19.6862 84.7837 19.2787 84.6165 18.8305C84.4494 18.3824 84.3679 17.9027 84.3771 17.4202C84.3673 16.9387 84.4477 16.4599 84.6136 16.0124C84.7795 15.5648 85.0275 15.1575 85.3428 14.8145C85.6582 14.4715 86.0345 14.1999 86.4495 14.0156C86.8645 13.8314 87.3098 13.7383 87.759 13.7419C88.2082 13.7383 88.6535 13.8314 89.0685 14.0156C89.4835 14.1999 89.8599 14.4715 90.1752 14.8145C90.4906 15.1575 90.7385 15.5648 90.9044 16.0124C91.0703 16.4599 91.1507 16.9387 91.1409 17.4202C91.1409 18.4506 90.8125 19.3245 90.1677 20.0289Z" fill="white"/>
<path fill-rule="evenodd" clip-rule="evenodd" d="M85.9709 19.4419L85.8979 19.5201C86.4088 20.0679 87.0293 20.3549 87.7592 20.3549C88.4891 20.3549 89.1217 20.0679 89.6205 19.5201C90.1314 18.9723 90.3869 18.2679 90.3869 17.4332C90.3869 16.5723 90.1314 15.868 89.6205 15.3201C89.3806 15.0509 89.0915 14.8378 88.7712 14.6941C88.4509 14.5505 88.1063 14.4794 87.7592 14.4854C87.0293 14.4854 86.4088 14.7723 85.8979 15.3201C85.6445 15.5965 85.446 15.9251 85.3142 16.286C85.1825 16.6469 85.1204 17.0327 85.1315 17.4201C85.1315 18.2679 85.387 18.9853 85.8979 19.5201L86.0561 19.3636C85.8213 19.1082 85.6376 18.8041 85.5163 18.4699C85.395 18.1357 85.3385 17.7785 85.3505 17.4201C85.3505 16.6375 85.5938 15.9853 86.0561 15.4767C86.2763 15.232 86.5412 15.0386 86.8342 14.9085C87.1272 14.7783 87.4421 14.7142 87.7592 14.7201C88.4404 14.7201 89 14.981 89.4623 15.4767C89.9367 15.9984 90.1679 16.6245 90.1679 17.4332C90.1679 18.2158 89.9246 18.8549 89.4623 19.3636C89 19.8723 88.4404 20.1201 87.7592 20.1201C87.4421 20.126 87.1272 20.0619 86.8342 19.9318C86.5412 19.8016 86.2763 19.6082 86.0561 19.3636L85.9709 19.4419ZM90.1679 20.0288L90.0949 19.9505C89.4623 20.6418 88.6959 20.981 87.7592 20.994C87.3254 20.9959 86.8957 20.9046 86.4953 20.7254C86.095 20.5463 85.7322 20.2831 85.4283 19.9512C85.1244 19.6193 84.8856 19.2255 84.726 18.793C84.5664 18.3605 84.4892 17.8981 84.4989 17.4332C84.4875 16.9671 84.5635 16.5033 84.7224 16.0693C84.8813 15.6353 85.1198 15.24 85.4239 14.9067C85.7279 14.5734 86.0913 14.3089 86.4924 14.129C86.8936 13.9491 87.3244 13.8574 87.7592 13.8593C88.6959 13.8593 89.4623 14.1984 90.0827 14.9027C90.7153 15.594 91.0316 16.4288 91.0316 17.4201C91.0316 18.4245 90.7153 19.2592 90.0949 19.9505L90.253 20.1201C90.91 19.3897 91.2506 18.4766 91.2506 17.4201C91.2604 16.9232 91.1771 16.4292 91.0057 15.9674C90.8343 15.5056 90.5783 15.0853 90.2528 14.7314C89.9273 14.3776 89.5389 14.0973 89.1106 13.9071C88.6823 13.717 88.2227 13.6209 87.7592 13.6245C87.2966 13.6226 86.8384 13.72 86.4116 13.911C85.9847 14.1019 85.5977 14.3824 85.2735 14.7361C84.9493 15.0898 84.6944 15.5095 84.5237 15.9705C84.3531 16.4314 84.2702 16.9243 84.2799 17.4201C84.2799 18.4766 84.6084 19.3766 85.2775 20.1201C85.9344 20.8505 86.7738 21.2158 87.7592 21.2158C88.7446 21.2158 89.584 20.8505 90.253 20.1201L90.1679 20.0288ZM92.3333 20.9418V13.8984H93.3552L96.5424 19.3766H96.5789L96.5424 18.0201V13.8984H97.394V20.9418H96.5059L93.1605 15.2027H93.124L93.1605 16.5593V20.9418H92.3211" fill="white"/>
<path fill-rule="evenodd" clip-rule="evenodd" d="M92.3331 20.9418H92.4304V14.0288H93.282L96.4814 19.5071H96.6882L96.6517 18.0201V14.0158H97.2721V20.8245H96.5665L93.2211 15.0853H93.0143L93.0508 16.5593V20.8245H92.3209V20.9549H92.4426H92.3209V21.0592H93.2698V16.5593L93.2333 15.1897H93.1238V15.3201H93.1603V15.1897L93.0752 15.2549L96.4449 21.0592H97.4911V13.781H96.4327V18.0201L96.4692 19.3766H96.5787V19.2592H96.5422V19.3897L96.6395 19.3114L93.4158 13.781H92.2114V21.0592H92.3331V20.9418Z" fill="white"/>
</svg>
